<svg id="Layer_1" data-name="Layer 1" xmlns="http://www.w3.org/2000/svg" viewBox="0 0 198.72 196.56"><defs><style>.cls-1{fill:#fff;}</style></defs><title>Rtext 3</title><path class="cls-1" d="M6,96.57l.37-4,.14,0c-.05.49.06,1.1.57,1l14.43-3L7.85,84.92c-.47-.22-.69.36-.74.82H7L7.23,83h.14c0,.5,0,1.17.53,1.38l14.13,6,.75,1.56L6.89,95.33c-.52.15-.74.79-.78,1.25Z"/><path class="cls-1" d="M8.05,79.82l.84-3.73.16,0c-.1.45-.08,1.1.37,1.2l14.33,3.22c.48.11.78-.47.88-.92l.16,0L24,83.4l-.17,0c.11-.45.08-1.1-.4-1.21L9.06,78.93c-.45-.1-.75.48-.85.93Z"/><path class="cls-1" d="M9.52,73l3.76-10.67,2.23.33,0,.12c-1.86,1-3.15,3.68-3.91,5.83l-.69,2,7,2.48,1-2.77a2.25,2.25,0,0,0-1-2.33l.06-.15,1.65.58.43.15,1.65.58-.05.16a2.23,2.23,0,0,0-2.26,1.16l-.26.72-.72,2,7,2.47c.17-.47.67-1.9.69-2,.76-2.15,1.44-5.06.64-7l0-.12,1.94,1.14L24.9,78.45l-.15-.06c.15-.44.2-1.08-.26-1.25L10.63,72.27c-.46-.17-.83.37-1,.81Z"/><path class="cls-1" d="M14.89,58,17,54.62l.11.07c-.25.42-.42,1,.09,1.13l13.39,3.81-5.93-6.31-5.06-1.45c-.51-.12-1,.36-1.25.78l-.12-.06,2.08-3.42.11.07c-.24.4-.42,1,.09,1.14l13.41,3.78L24.32,44c-.34-.4-.8,0-1,.45l-.12-.07,1.43-2.34.11.07a1.33,1.33,0,0,0-.11,1.44L35,54.55l0,1.76-9.4-2.7L31.71,60v1.74L16.25,57.31c-.53-.09-1,.39-1.25.79Z"/><path class="cls-1" d="M30.32,35.6,34,32c1.58-1.54,5.2-3.5,10.11,1.52s2.86,8.6,1.28,10.15l-3.66,3.57-.11-.12c.33-.32.66-.88.32-1.23L31.66,35.4c-.33-.33-.89,0-1.22.32ZM32.6,34,43.33,45l1.36-1.34C47,41.39,46,37.72,42.91,34.7c-3-3.19-6.62-4.28-8.94-2Z"/><path class="cls-1" d="M40.64,25.81l9.21-6.57,1.64,1.55-.11.07c-2.09-.25-4.7,1.21-6.55,2.53L43.14,24.6l4.33,6.07L49.86,29a2.23,2.23,0,0,0,.49-2.49l.13-.1,1,1.42.27.38,1,1.42-.13.1a2.25,2.25,0,0,0-2.52-.35l-.62.44-1.77,1.27,4.31,6,1.69-1.21c1.86-1.32,4.08-3.31,4.54-5.34l.11-.08.93,2-9.21,6.57L50,39c.38-.27.79-.77.5-1.17L42,25.82c-.28-.4-.89-.17-1.27.1Z"/><path class="cls-1" d="M53.79,16.87l10.37-5,1.38,1.79-.15.08c-1.56-.5-3.63,0-5.44.72l6.52,13.49c.22.45.82.33,1.27.12l.07.15-3.45,1.66-.07-.14c.42-.2.91-.63.7-1.07L58.46,15.16c-1.69,1-3.37,2.29-4,3.82l-.14.07Z"/><path class="cls-1" d="M71.2,9.48l9.45,13.2c.31.42,1,.37,1.46.22l0,.15-1,.33h0l-.15.05-.29.09-.75.25-.34.11-.1,0h0l-1.1.36,0-.16c.47-.15,1-.49.68-.91l-.57-.79-2.25-3.15-5.55,1.81.08,4.83h0c0,.53.65.49,1.08.34l.06.16-1.1.36h0l-.44.14h0l-1,.33,0-.16c.44-.14,1-.5,1.06-1L70,10.77Zm-.73,1.7.13,9.43,5.3-1.73Z"/><path class="cls-1" d="M80.34,7.05l3.76-.71,0,.17c-.46.08-1,.36-1,.81L85.9,21.75c.09.49.73.53,1.19.45l0,.16-3.76.71,0-.16c.45-.09,1-.36.94-.85L81.55,7.63c-.08-.45-.73-.5-1.18-.41Z"/><path class="cls-1" d="M87.12,5.73l3.81-.27v.13c-.46,0-1.07.24-1,.73L91,21.3l6.12-.44A2.76,2.76,0,0,0,99.26,19h.17l-.27,2.23L88.3,22v-.16c.46,0,1.07-.24,1-.74L88.26,6.44c0-.49-.67-.61-1.13-.57Z"/><path class="cls-1" d="M107.27,5.35A9.29,9.29,0,0,1,112,7.08l-1.55,2c-1.41-3-2.73-3.16-3.52-3.22a4.6,4.6,0,0,0-2.55.53,2.83,2.83,0,0,0-1.28,2.32c-.09,1.18,1,2.52,2.89,3.66a22.08,22.08,0,0,1,3.21,2.21c.8.69,2.17,1.86,1.88,3.79-.23,1.73-2.41,3.32-5.28,3.26a8.7,8.7,0,0,1-5.1-1.73l1.55-2c1,2.23,2,3.13,3.68,3.26,1.35.11,3.52-.91,3.65-2.69s-2.05-3.3-3.19-4a19.76,19.76,0,0,1-3.24-2.27,4.23,4.23,0,0,1-1.55-3.83c.3-1.7,2.7-3.13,5.27-3A1.45,1.45,0,0,1,107.27,5.35Zm-.52,0"/><path class="cls-1" d="M141.49,14.67l3.43,2-.07.12c-.42-.26-1-.42-1.13.09l-3.46,14.34,11-9.88c.39-.34,0-.79-.43-1l.07-.11,2.35,1.4-.07.11a1.34,1.34,0,0,0-1.47-.1l-11.44,10.2h-1.74L142.22,16c.08-.53-.4-1-.8-1.25Z"/><path class="cls-1" d="M155.68,23.72l3,2.36-.1.13c-.36-.28-1-.54-1.24-.18l-9,11.57c-.31.39.08.9.45,1.19l-.1.13-3-2.36.1-.13c.37.28,1,.54,1.27.15L156.05,25c.28-.37-.11-.88-.47-1.17Z"/><path class="cls-1" d="M161.18,28l8,8L168,37.8l-.09-.09c-.11-2.1-2-4.43-3.6-6l-1.48-1.46-5.25,5.3,2.09,2.07a2.26,2.26,0,0,0,2.54,0l.12.12L161.07,39l-.32.33-1.23,1.24-.12-.11a2.26,2.26,0,0,0-.08-2.55l-.54-.53-1.55-1.53L152,41.12c.35.35,1.43,1.42,1.47,1.47,1.62,1.6,4,3.45,6,3.56l.1.09-1.86,1.27-8-8,.12-.12c.33.33.89.65,1.24.3l10.32-10.44c.35-.35,0-.91-.31-1.23Z"/><path class="cls-1" d="M172.43,39.2l2.21,3.33-.11.07c-.28-.41-.74-.82-1.06-.41l-9.16,10.5L172.54,50l3.48-4c.32-.42.09-1.06-.18-1.47l.11-.07,2.2,3.33-.11.07c-.25-.39-.74-.82-1.06-.41L167.84,58l13.24-4.34c.5-.13.3-.75,0-1.13l.11-.07,1.51,2.28-.11.07c-.25-.38-.75-.84-1.26-.71L167,58.9l-1.58-.77,6.44-7.36-8.4,2.8-1.56-.75,10.6-12.08a1.41,1.41,0,0,0-.18-1.47Z"/><path class="cls-1" d="M187.79,67l1.43,4.92c.61,2.12.64,6.24-6.11,8.2s-8.93-1.53-9.55-3.65l-1.43-4.91.16,0c.13.44.46,1,.94.86l14.1-4.1c.45-.13.43-.78.3-1.22Zm.32,2.76L173.37,74l.54,1.84c.9,3.1,4.62,4,8.74,2.64,4.21-1.12,6.9-3.82,6-6.93Z"/><path class="cls-1" d="M191.55,80.7,193,91.92l-2.13.71,0-.13c1.21-1.72,1.16-4.71.87-7,0-.06-.2-1.57-.27-2.06l-7.39,1,.37,2.91a2.25,2.25,0,0,0,2,1.61l0,.17-1.73.22-.46.06-1.74.22,0-.16a2.26,2.26,0,0,0,1.5-2.06l-.09-.75-.28-2.16-7.37.94c.07.49.26,2,.27,2.06.29,2.26,1,5.17,2.57,6.53v.13L176.83,94l-1.44-11.22.16,0c.06.46.3,1.06.79,1l14.57-1.86c.49-.07.57-.71.51-1.17Z"/><path class="cls-1" d="M193.22,96.49,192.76,108l-2.22.37v-.16c1.17-1.14,1.71-3.2,1.92-5.14l-15-.6c-.49,0-.68.57-.7,1.06h-.16l.15-3.83h.16c0,.46.12,1.09.62,1.11l15,.6c-.05-2-.43-4-1.51-5.28V96Z"/><path class="cls-1" d="M191.56,115.31l-16.09,2.14c-.51.08-.79.7-.88,1.18l-.16,0,.18-1v0l0-.16,0-.29.14-.78.06-.36,0-.1v0l.2-1.14.16,0c-.08.49,0,1.1.49,1l1-.14,3.83-.5,1-5.75-4.3-2.19v0c-.46-.24-.73.34-.81.8l-.16,0,.2-1.14v0l.07-.45v0l.18-1,.17,0a1.43,1.43,0,0,0,.38,1.41l13.64,7Zm-1.16-1.44L182,109.55l-1,5.49Z"/><path class="cls-1" d="M189.42,124.49l-1.13,3.66-.16-.05c.14-.44.16-1.09-.28-1.23l-14-4.36c-.47-.15-.82.4-1,.84l-.16,0,1.14-3.65.16,0c-.14.44-.17,1.08.3,1.23l14,4.37c.45.13.79-.41.93-.86Z"/><path class="cls-1" d="M187.39,131.14l-1.56,3.5-.12,0c.19-.42.29-1.06-.16-1.26l-13.72-6.08-2.49,5.61a2.73,2.73,0,0,0,.65,2.77l-.07.15-1.85-1.28,4.41-10,.15.07c-.18.42-.29,1.06.17,1.26l13.42,5.95c.45.2.86-.31,1-.73Z"/><path class="cls-1" d="M178.24,149.11a9.37,9.37,0,0,1-3.78,3.38l-1-2.29c3.33.18,4.07-.92,4.5-1.58a4.56,4.56,0,0,0,.74-2.51,2.78,2.78,0,0,0-1.44-2.21c-1-.64-2.68-.35-4.6.81a21.05,21.05,0,0,1-3.45,1.79c-1,.38-2.67,1-4.23-.13s-1.79-3.69-.38-6.2a8.7,8.7,0,0,1,3.92-3.68l1,2.31c-2.44-.16-3.71.29-4.62,1.7-.73,1.14-.85,3.53.65,4.5s3.89-.26,5-.95a20.11,20.11,0,0,1,3.53-1.78,4.24,4.24,0,0,1,4.11.44c1.36,1.06,1.49,3.85.18,6.07A1.26,1.26,0,0,1,178.24,149.11Zm.25-.47"/><path class="cls-1" d="M153.92,174.87l-3.41,2.07-.07-.11c.42-.26.84-.71.44-1.05l-11-9.78,3.59,14.31c.12.51.71.34,1.1.1l.07.11-2.34,1.42-.07-.11c.43-.26.9-.74.79-1.25l-3.64-14.89.8-1.53,12.23,10.72a1.4,1.4,0,0,0,1.47-.13Z"/><path class="cls-1" d="M139.25,183.17l-3.49,1.55-.07-.15c.42-.19.93-.59.74-1l-6-13.43c-.2-.45-.84-.35-1.26-.16l-.07-.15,3.5-1.55.07.15c-.42.18-.93.59-.73,1l6,13.43c.19.42.83.32,1.25.13Z"/><path class="cls-1" d="M132.92,186l-10.81,3.35-1.07-2,.13,0c1.9.9,4.84.34,7-.34l2-.61L128,179.28l-2.81.87a2.25,2.25,0,0,0-1.24,2.22l-.16,0-.52-1.67-.14-.44-.51-1.68.15,0a2.27,2.27,0,0,0,2.29,1.12l.72-.22,2.08-.65-2.19-7.09-2,.61c-2.18.68-4.91,1.87-6,3.65l-.12,0-.25-2.24,10.82-3.35.05.16c-.45.14-1,.48-.85.95l4.35,14c.14.48.79.45,1.23.31Z"/><path class="cls-1" d="M117.66,190.67l-4,.37v-.13c.49,0,1.07-.26.86-.74l-4.92-13-1.53,8.53,1.85,4.93c.21.48.88.58,1.37.53l0,.13-4,.37v-.13c.46,0,1.07-.26.86-.74l-5-13-2.43,13.72c-.12.5.52.61,1,.57v.13l-2.73.25v-.13c.46,0,1.1-.27,1.22-.78l2.59-14.91,1.43-1,3.43,9.16,1.51-8.73,1.4-1,5.64,15a1.38,1.38,0,0,0,1.37.53Z"/><path class="cls-1" d="M81.54,190.36l-5-1.28c-2.14-.56-5.69-2.64-3.92-9.44s5.88-6.9,8-6.34l5,1.29,0,.16c-.44-.12-1.09-.12-1.22.36l-3.69,14.21c-.12.45.45.77.9.88ZM79,189.23l3.86-14.85L81,173.9c-3.13-.82-5.76,1.94-6.75,6.15-1.19,4.19-.24,7.88,2.89,8.7Z"/><path class="cls-1" d="M67.8,186.57l-10.38-4.51.49-2.2.12,0c.85,1.92,3.45,3.41,5.53,4.31l1.91.83,3-6.84-2.69-1.16a2.24,2.24,0,0,0-2.39.86l-.15-.06.69-1.61.19-.42.7-1.61.15.07a2.25,2.25,0,0,0,1,2.34l.7.3,2,.87,3-6.81-1.91-.82c-2.09-.91-4.94-1.79-6.92-1.14l-.12-.05,1.28-1.86,10.38,4.51-.07.15c-.42-.18-1.06-.28-1.26.17l-5.86,13.47c-.19.45.32.85.74,1Z"/><path class="cls-1" d="M53.38,179.92l-9.64-6.31.83-2.1.14.09c.38,1.59,1.86,3.11,3.42,4.29l8.2-12.54c.27-.42-.13-.88-.55-1.15l.09-.14,3.21,2.1-.09.14c-.39-.26-1-.46-1.28-.05l-8.2,12.54c1.7,1,3.7,1.71,5.3,1.42l.14.09Z"/><path class="cls-1" d="M38.07,168.8l6.43-14.9c.2-.48-.19-1-.56-1.36l.1-.13.8.69,0,0,.12.11.23.19.6.52.27.24.08.07,0,0,.87.75-.1.13c-.38-.33-.94-.59-1.14-.11l-.38.9-1.54,3.55,4.42,3.82,4.1-2.57,0,0c.45-.26.08-.8-.27-1.1l.11-.12.87.75,0,0,.35.31,0,0,.8.69-.1.12a1.45,1.45,0,0,0-1.41-.39l-13.06,8.09Zm1.83-.25,8-5-4.22-3.65Z"/><path class="cls-1" d="M31.28,162.25l-2.55-2.86.12-.11c.31.35.85.7,1.2.4L41,149.88c.37-.33.08-.91-.23-1.25l.12-.11,2.56,2.85-.13.11c-.3-.35-.85-.7-1.21-.37l-10.94,9.8c-.35.3,0,.88.26,1.22Z"/><path class="cls-1" d="M26.66,157.13,24.44,154l.11-.07c.27.37.77.79,1.17.5L38,145.76l-3.55-5a2.75,2.75,0,0,0-2.72-.86l-.1-.14,2.06-.93L40,147.7l-.13.1c-.27-.38-.76-.79-1.17-.51l-12,8.5c-.4.28-.17.89.1,1.27Z"/><path class="cls-1" d="M15.89,140.06a9.32,9.32,0,0,1-1-5l2.48.31c-1.86,2.77-1.29,4-.94,4.68A4.52,4.52,0,0,0,18.22,142a2.79,2.79,0,0,0,2.64-.1c1.07-.53,1.67-2.13,1.65-4.37a21,21,0,0,1,.24-3.88c.18-1,.47-2.82,2.27-3.57,1.61-.7,4.09.35,5.52,2.84a8.67,8.67,0,0,1,1.15,5.26l-2.5-.3c1.38-2,1.65-3.33.89-4.84-.6-1.21-2.59-2.54-4.19-1.74s-1.77,3.47-1.74,4.78a19.61,19.61,0,0,1-.28,3.94,4.22,4.22,0,0,1-2.47,3.31c-1.61.62-4.08-.69-5.32-2.95A1.23,1.23,0,0,1,15.89,140.06Zm.26.46"/></svg>